<?xml version="1.0" encoding="UTF-8" standalone="no"?>
<!-- Created with Inkscape (http://www.inkscape.org/) -->

<svg
   width="1023.9999"
   height="1023.9999"
   viewBox="0 0 270.93333 270.93333"
   version="1.1"
   id="svg1"
   xmlns="http://www.w3.org/2000/svg"
   xmlns:svg="http://www.w3.org/2000/svg">
  <defs
     id="defs1" />
  <g
     id="layer1">
    <rect
       style="mix-blend-mode:normal;fill:#abbcb9;fill-opacity:1;stroke-width:0.264583"
       id="rect6"
       width="270.93332"
       height="270.93332"
       x="0"
       y="0"
       rx="47.625"
       ry="47.625" />
  </g>
  <g
     id="layer4">
    <path
       style="font-size:388.056px;font-family:Consolas;-inkscape-font-specification:Consolas;fill:#fbfbfb;stroke-width:0.264583"
       d="m 239.8704,133.85608 q 0,13.26363 -3.22117,24.63246 -3.03169,11.36883 -9.28454,19.70597 -6.06338,8.33714 -15.15844,13.07415 -9.09506,4.73701 -20.84285,4.73701 -8.52662,0 -15.5374,-2.46324 -6.8213,-2.46325 -13.45311,-7.20026 -6.44234,-4.92649 -13.07416,-12.31623 -6.63181,-7.38974 -14.58999,-17.24272 -8.7161,10.6109 -15.91636,18.19012 -7.01078,7.38974 -13.6426,12.12675 -6.442331,4.54753 -13.263628,6.8213 -6.631816,2.08428 -14.589996,2.08428 -10.421426,0 -18.948047,-4.16857 -8.526621,-4.35805 -14.589996,-12.12675 -6.063375,-7.7687 -9.474023,-18.56908 -3.221168,-10.80039 -3.221168,-23.87454 0,-13.26363 3.410648,-24.63246 3.600129,-11.36883 9.852984,-19.705972 6.442336,-8.33714 15.347918,-13.074152 9.095063,-4.926492 19.89545,-4.926492 6.252855,0 12.12675,1.515844 6.063375,1.326363 12.505708,5.494933 6.63182,4.16857 14.40052,11.93727 7.7687,7.768699 17.62168,20.274409 8.52662,-10.04246 15.5374,-17.432202 7.01078,-7.389739 13.64259,-12.12675 6.8213,-4.926492 13.45312,-7.200258 6.63181,-2.463246 14.40051,-2.463246 9.66351,0 18.19013,3.410648 8.52662,3.410649 14.77947,10.610906 6.25286,7.200258 9.85299,18.379602 3.78961,11.17935 3.78961,26.52727 z m -29.17999,1.8948 q 0,-30.69583 -21.60078,-30.69583 -3.97909,0 -7.7687,1.70532 -3.78961,1.70533 -8.33714,5.30546 -4.35805,3.60012 -9.6635,9.28454 -5.11597,5.49493 -11.55831,13.26363 7.20026,9.85299 12.88467,16.10584 5.8739,6.06338 10.61091,9.47402 4.73701,3.41065 8.33714,4.73702 3.78961,1.13688 6.63182,1.13688 20.46389,0 20.46389,-30.31688 z m -91.51907,0.37897 q -25.011422,-31.83272 -38.843497,-31.83272 -20.084929,0 -20.084929,31.07479 0,31.0748 21.411293,31.0748 3.221168,0 6.252855,-0.9474 3.031688,-0.9474 7.010778,-3.97909 4.16857,-3.22117 9.85298,-9.28455 5.8739,-6.06337 14.40052,-16.10583 z"
       id="text7"
       aria-label="∞" />
  </g>
</svg>
