<?xml version="1.0" encoding="UTF-8" standalone="no"?>
<!-- Created with Inkscape (http://www.inkscape.org/) -->

<svg
   width="1023.9999"
   height="1023.9999"
   viewBox="0 0 270.93333 270.93333"
   version="1.1"
   id="svg1"
   xmlns="http://www.w3.org/2000/svg"
   xmlns:svg="http://www.w3.org/2000/svg">
  <defs
     id="defs1" />
  <g
     id="layer1">
    <rect
       style="mix-blend-mode:normal;fill:#abbcb9;fill-opacity:1;stroke-width:0.264583"
       id="rect6"
       width="270.93332"
       height="270.93332"
       x="1.0908203e-05"
       y="0"
       rx="47.625"
       ry="47.625" />
  </g>
  <g
     id="layer4">
    <path
       d="m 62.189366,40.278517 q 0,3.100591 2.170414,5.271005 2.273767,2.170414 5.374357,2.170414 v 26.044963 q 0.516766,7.028006 3.307297,15.502955 2.790532,8.371595 8.785008,16.536486 5.994476,8.16489 15.709661,14.36607 9.818537,6.09783 24.287967,8.3716 v 17.1566 q -14.46943,2.27377 -24.287967,8.47495 -9.715185,6.09783 -15.709661,14.26272 -5.994476,8.16489 -8.785008,16.63983 -2.790531,8.3716 -3.307297,15.39961 v 26.04496 q -3.10059,0 -5.374357,2.17041 -2.170414,2.17042 -2.170414,5.27101 0,3.10059 2.170414,5.271 2.273767,2.17042 5.374357,2.17042 H 203.78302 q 3.10059,0 5.271,-2.17042 2.17042,-2.17041 2.17042,-5.271 0,-3.10059 -2.17042,-5.27101 -2.17041,-2.17041 -5.271,-2.17041 v -26.04496 q -0.51677,-7.02801 -3.41065,-15.39961 -2.79053,-8.47494 -8.78501,-16.63983 -5.89112,-8.16489 -15.70966,-14.26272 -9.81854,-6.20118 -24.28796,-8.47495 v -17.1566 q 14.46942,-2.27377 24.28796,-8.3716 9.81854,-6.20118 15.70966,-14.36607 5.99448,-8.164891 8.78501,-16.536486 2.89388,-8.474949 3.41065,-15.502955 V 47.719936 q 3.10059,0 5.271,-2.170414 2.17042,-2.170414 2.17042,-5.271005 0,-3.100591 -2.17042,-5.271004 -2.17041,-2.170414 -5.271,-2.170414 H 69.734137 q -3.10059,0 -5.374357,2.170414 -2.170414,2.170413 -2.170414,5.271004 z m 14.98619,186.242163 q 0,-13.43589 3.824062,-23.35779 3.927415,-10.02524 10.128597,-16.94989 6.304535,-6.92466 13.332545,-11.16213 7.13136,-4.23747 13.74595,-6.20118 6.61459,-1.96371 11.05877,-1.96371 v -37.20709 q 0,-2.79053 -1.86035,-4.44418 -1.86036,-1.65365 -3.72071,-2.27377 -1.86035,-0.72347 -1.86035,-0.72347 0,0 -3.82407,-1.24024 -3.72071,-1.34358 -9.30177,-3.82406 -5.47771,-2.58382 -11.058774,-6.20118 -5.581064,-3.61736 -9.301773,-8.26824 -3.720709,-4.650888 -3.720709,-10.231952 0,-3.41065 2.273767,-5.477711 2.377119,-2.06706 5.167651,-2.06706 h 89.400368 q 2.79054,0 5.0643,2.377119 2.37712,2.37712 2.37712,5.167652 0,5.581064 -3.82406,10.231952 -3.72071,4.65088 -9.30177,8.26824 -5.47771,3.61736 -11.05878,6.20118 -5.58106,2.48048 -9.40512,3.82406 -3.72071,1.24024 -3.72071,1.24024 0,0 -1.86036,0.72347 -1.86035,0.62012 -3.72071,2.27377 -1.86035,1.65365 -1.86035,4.44418 v 37.20709 q 4.54753,0 11.05877,1.96371 6.6146,1.96371 13.74596,6.20118 7.13136,4.23747 13.33254,11.16213 6.20118,6.92465 10.1286,16.94989 3.92741,9.9219 3.92741,23.35779 z"
       id="text7"
       style="font-size:211.667px;font-family:'Cascadia Mono';-inkscape-font-specification:'Cascadia Mono';fill:#fbfbfb;stroke-width:21.1667"
       aria-label="⌛" />
  </g>
</svg>
