<?xml version="1.0" encoding="UTF-8" standalone="no"?>
<!-- Created with Inkscape (http://www.inkscape.org/) -->

<svg
   width="1023.9999"
   height="1023.9999"
   viewBox="0 0 270.93333 270.93333"
   version="1.1"
   id="svg1"
   xmlns="http://www.w3.org/2000/svg"
   xmlns:svg="http://www.w3.org/2000/svg">
  <defs
     id="defs1" />
  <g
     id="layer1">
    <rect
       style="mix-blend-mode:normal;fill:#abbcb9;fill-opacity:1;stroke-width:0.264583"
       id="rect6"
       width="270.93332"
       height="270.93332"
       x="1.0908203e-05"
       y="0"
       rx="47.625"
       ry="47.625" />
  </g>
  <g
     id="layer4">
    <path
       id="rect7-1"
       style="fill:#fbfbfb;stroke-width:11.6907"
       d="m 100.75105,125.58638 h 41.91454 c 8.14109,0 14.6951,2.33326 14.6951,5.23153 v 4.63064 c 0,2.89827 -6.55401,5.23154 -14.6951,5.23154 h -41.91454 c -8.141088,0 -14.695104,-2.33327 -14.695104,-5.23154 v -4.63064 c 0,-2.89827 6.554016,-5.23153 14.695104,-5.23153 z" />
    <path
       id="rect1"
       style="fill:#fbfbfb;fill-opacity:0;stroke:#fbfbfb;stroke-width:18.3834"
       d="m 98.957958,35.1852 h 73.017412 c 20.91301,0 37.74912,17.793638 37.74912,39.896049 V 195.85208 c 0,22.10241 -16.83611,39.89605 -37.74912,39.89605 H 98.957958 c -20.913014,0 -37.749122,-17.79364 -37.749122,-39.89605 V 75.081249 c 0,-22.102411 16.836108,-39.896049 37.749122,-39.896049 z" />
    <path
       id="rect7-1-2-2"
       style="fill:#fbfbfb;stroke-width:13.6949"
       d="m 106.60229,182.48048 h 57.51777 c 11.17171,0 20.16554,2.33327 20.16554,5.23154 v 4.63064 c 0,2.89827 -8.99383,5.23153 -20.16554,5.23153 h -57.51777 c -11.171714,0 -20.165545,-2.33326 -20.165545,-5.23153 v -4.63064 c 0,-2.89827 8.993831,-5.23154 20.165545,-5.23154 z" />
    <path
       id="rect7-1-2"
       style="fill:#fbfbfb;stroke-width:13.6949"
       d="m 105.5477,155.35011 h 57.51778 c 11.17171,0 20.16554,2.33327 20.16554,5.23154 v 4.63064 c 0,2.89827 -8.99383,5.23153 -20.16554,5.23153 H 105.5477 c -11.171705,0 -20.165536,-2.33326 -20.165536,-5.23153 v -4.63064 c 0,-2.89827 8.993831,-5.23154 20.165536,-5.23154 z" />
    <path
       id="rect7"
       style="fill:#fbfbfb;stroke-width:24.5246"
       d="m 106.70778,62.618969 h 57.51777 c 11.17171,0 20.16554,7.482537 20.16554,16.776989 v 14.849979 c 0,9.294453 -8.99383,16.776993 -20.16554,16.776993 h -57.51777 c -11.171713,0 -20.165544,-7.48254 -20.165544,-16.776993 V 79.395958 c 0,-9.294452 8.993831,-16.776989 20.165544,-16.776989 z" />
  </g>
</svg>
