<?xml version="1.0" encoding="UTF-8" standalone="no"?>
<!-- Created with Inkscape (http://www.inkscape.org/) -->

<svg
   width="1023.9999"
   height="1023.9999"
   viewBox="0 0 270.93333 270.93333"
   version="1.1"
   id="svg1"
   xmlns="http://www.w3.org/2000/svg"
   xmlns:svg="http://www.w3.org/2000/svg">
  <defs
     id="defs1" />
  <g
     id="layer1"
     style="display:inline">
    <rect
       style="mix-blend-mode:normal;fill:#bcabae;fill-opacity:1;stroke-width:0.264583"
       id="rect6"
       width="270.93332"
       height="270.93332"
       x="1.0908203e-05"
       y="0"
       rx="47.625"
       ry="47.625" />
  </g>
  <g
     id="layer4">
    <g
       id="text11"
       style="font-size:123.472px;line-height:0.6;font-family:'Cascadia Mono';-inkscape-font-specification:'Cascadia Mono';letter-spacing:-3.96875px;fill:#fbfbfb;stroke:none;stroke-width:4.49792;stroke-linecap:round;stroke-linejoin:round;stroke-dasharray:none"
       aria-label="schf&#10;me">
      <path
         style="font-weight:bold;font-family:Consolas;-inkscape-font-specification:Consolas;text-align:center;text-anchor:middle;stroke:none;stroke-width:4.49792;stroke-dasharray:none"
         d="m 62.109534,119.43707 q 0,5.24515 -2.351274,8.98307 -2.290984,3.67763 -6.149484,6.02891 -3.798211,2.29098 -8.681625,3.3159 -4.823125,1.0852 -9.887406,1.0852 -6.752375,0 -12.178391,-0.66318 -5.426016,-0.60289 -10.249141,-1.80867 v -13.2636 q 5.667172,2.35128 11.274055,3.43648 5.667172,1.02491 10.671164,1.02491 5.78775,0 8.621336,-1.80867 2.893875,-1.86896 2.893875,-4.82312 0,-1.38665 -0.602891,-2.53214 -0.60289,-1.14549 -2.290984,-2.17041 -1.627805,-1.0852 -4.642258,-2.17041 -3.014453,-1.14549 -7.897867,-2.53214 -4.52168,-1.26607 -7.958156,-2.83358 -3.376188,-1.62781 -5.606883,-3.79821 -2.230695,-2.17041 -3.376188,-5.003995 -1.085203,-2.893875 -1.085203,-6.752375 0,-3.737922 1.688094,-7.05382 1.688094,-3.315899 5.003992,-5.78775 3.376188,-2.532141 8.38018,-3.979078 5.003992,-1.446938 11.696078,-1.446938 5.78775,0 10.249141,0.602891 4.46139,0.60289 7.897867,1.326359 v 11.997523 q -5.245149,-1.688093 -9.887406,-2.351273 -4.581969,-0.723469 -9.103649,-0.723469 -4.52168,0 -7.294976,1.627805 -2.713008,1.627805 -2.713008,4.52168 0,1.386648 0.542601,2.471851 0.542602,1.085203 2.110118,2.110117 1.627804,1.024914 4.46139,2.170407 2.893875,1.085203 7.596422,2.411565 5.305438,1.50722 8.922781,3.25561 3.617344,1.68809 5.78775,3.8585 2.230696,2.1704 3.195321,4.9437 0.964625,2.7733 0.964625,6.33035 z m 62.952106,15.67516 q -4.34081,1.74838 -8.98307,2.59243 -4.64226,0.84404 -9.70654,0.84404 -7.294975,0 -13.082725,-1.98953 -5.78775,-1.98954 -9.827117,-5.90833 -4.039367,-3.91879 -6.209773,-9.70654 -2.110117,-5.78775 -2.110117,-13.38417 0,-7.35527 2.290984,-13.323887 2.351273,-5.968617 6.571508,-10.188851 4.220234,-4.220235 10.128562,-6.511219 5.968618,-2.290985 13.263598,-2.290985 5.96861,0 10.00798,0.66318 4.09966,0.602891 7.35527,1.567516 v 14.288508 q -3.73793,-1.868961 -8.13903,-2.893875 -4.34081,-1.024915 -8.2596,-1.024915 -4.09966,0 -7.35526,1.386649 -3.255614,1.386648 -5.486309,3.8585 -2.230696,2.471851 -3.436477,6.028906 -1.145492,3.496763 -1.145492,7.717003 0,4.4011 1.26607,7.89786 1.266071,3.49677 3.557055,5.96862 2.351273,2.41156 5.606883,3.73792 3.25561,1.26607 7.23469,1.26607 1.92925,0 4.03936,-0.24115 2.17041,-0.30145 4.28053,-0.78376 2.1704,-0.5426 4.22023,-1.20578 2.11012,-0.66318 3.91879,-1.44694 z m 50.8943,2.35127 V 97.552142 q 0,-10.068274 -7.47585,-10.068274 -3.73792,0 -7.1744,3.014453 -3.37618,3.014453 -7.17439,8.199313 V 137.4635 H 139.42076 V 52.275056 h 14.71054 v 20.980593 l -0.72347,11.093188 q 1.86896,-2.230695 3.79821,-3.979078 1.92925,-1.808672 4.15994,-3.014453 2.2307,-1.205782 4.82313,-1.808672 2.59243,-0.66318 5.72746,-0.66318 4.70255,0 8.19931,1.567516 3.49677,1.507226 5.84804,4.340812 2.35127,2.773297 3.49677,6.752375 1.20578,3.918789 1.20578,8.802203 v 41.11714 z m 82.36518,-72.708608 q -2.65272,-0.844047 -6.33035,-1.386649 -3.61734,-0.602891 -7.41555,-0.602891 -2.59243,0 -4.82313,0.723469 -2.23069,0.66318 -3.8585,2.170406 -1.6278,1.507227 -2.59243,3.8585 -0.90433,2.290985 -0.90433,5.606883 v 9.887407 h 24.05533 V 96.466938 H 232.39683 V 137.4635 H 217.56572 V 96.466938 H 199.78044 V 85.012017 h 17.78528 v -9.284516 q 0,-6.511219 1.86896,-11.153477 1.92925,-4.702547 5.36572,-7.656711 3.49677,-3.014453 8.38018,-4.401101 4.88342,-1.386649 10.91232,-1.386649 3.97908,0 7.53614,0.542602 3.61734,0.482312 6.69208,1.205781 z m -63.3638,11.454921 z"
         id="path13" />
      <path
         style="font-weight:bold;font-family:Consolas;-inkscape-font-specification:Consolas;text-align:center;letter-spacing:-1.32292px;text-anchor:middle;display:inline;fill:#fbfbfb;fill-opacity:1;stroke:none;stroke-width:4.49792;stroke-dasharray:none;stroke-opacity:1"
         d="m 115.424,218.41712 v -41.72003 q 0,-2.29098 -0.12058,-3.97908 -0.12057,-1.74838 -0.48231,-2.89387 -0.36173,-1.14549 -1.0852,-1.68809 -0.66318,-0.60289 -1.86896,-0.60289 -1.86896,0 -3.67764,2.53214 -1.80867,2.53214 -4.09965,8.62133 v 39.73049 H 91.489244 v -41.72003 q 0,-2.29098 -0.120578,-3.97908 -0.120579,-1.74838 -0.482313,-2.89387 -0.361734,-1.14549 -1.085203,-1.68809 -0.723469,-0.60289 -1.92925,-0.60289 -1.567516,0 -3.496766,2.53214 -1.92925,2.53214 -4.280523,8.62133 v 39.73049 H 67.373619 v -61.25368 h 10.91232 l 0.241156,8.92278 q 1.32636,-2.71301 2.652719,-4.64226 1.326359,-1.92925 2.833586,-3.13503 1.507226,-1.26607 3.19532,-1.80867 1.748383,-0.5426 3.918789,-0.5426 5.124571,0 7.777289,2.713 2.713012,2.65272 3.074742,7.41556 1.44694,-2.71301 2.83359,-4.64226 1.44693,-1.92925 2.95416,-3.13503 1.56752,-1.26607 3.3159,-1.80867 1.80867,-0.5426 3.97908,-0.5426 6.69208,0 9.8874,4.70254 3.19532,4.64226 3.19532,13.8062 v 43.95072 z m 76.69113,-35.32939 q 0,1.50723 -0.12058,3.91879 -0.0603,2.41156 -0.24116,4.52168 H 151.4803 q 0,4.03937 1.20578,7.11411 1.26607,3.07474 3.49676,5.18486 2.29099,2.04983 5.42602,3.13503 3.19532,1.08521 7.05382,1.08521 4.46139,0 9.52567,-0.66318 5.12457,-0.72347 10.61088,-2.29099 v 11.69608 q -2.35128,0.66318 -5.12457,1.20578 -2.7733,0.5426 -5.66718,0.96463 -2.89387,0.42202 -5.84803,0.60289 -2.95417,0.24115 -5.72747,0.24115 -6.99353,0 -12.54012,-1.98954 -5.54659,-1.98954 -9.40509,-5.84804 -3.8585,-3.91878 -5.90833,-9.64625 -2.04983,-5.72746 -2.04983,-13.26359 0,-7.47584 2.04983,-13.56504 2.04983,-6.14948 5.78775,-10.4903 3.73792,-4.4011 9.04336,-6.75237 5.36572,-2.41156 11.93723,-2.41156 6.51122,0 11.51521,2.04983 5.00399,1.98953 8.38018,5.60688 3.37619,3.61734 5.12457,8.62133 1.74839,5.004 1.74839,10.97261 z m -14.95169,-2.11011 q 0.0603,-3.61735 -0.90434,-6.27007 -0.96462,-2.713 -2.65272,-4.46139 -1.6278,-1.74838 -3.8585,-2.59243 -2.1704,-0.84404 -4.70254,-0.84404 -5.5466,0 -9.10365,3.73792 -3.55706,3.67763 -4.22024,10.43001 z"
         id="path14" />
    </g>
  </g>
</svg>
